<svg width="199" height="88" viewBox="0 0 199 88" fill="none" xmlns="http://www.w3.org/2000/svg">
<path d="M48.638 35.256H56.864V36.876H50.366V40.674H56.414V42.294H50.366V46.38H57.188V48H48.638V35.256ZM59.2279 39.468H60.8479V40.782H60.8839C61.0879 40.326 61.4419 39.96 61.9459 39.684C62.4499 39.396 63.0319 39.252 63.6919 39.252C64.0999 39.252 64.4899 39.318 64.8619 39.45C65.2459 39.57 65.5759 39.762 65.8519 40.026C66.1399 40.29 66.3679 40.632 66.5359 41.052C66.7039 41.46 66.7879 41.946 66.7879 42.51V48H65.1679V42.96C65.1679 42.564 65.1139 42.228 65.0059 41.952C64.8979 41.664 64.7539 41.436 64.5739 41.268C64.3939 41.088 64.1839 40.962 63.9439 40.89C63.7159 40.806 63.4759 40.764 63.2239 40.764C62.8879 40.764 62.5759 40.818 62.2879 40.926C61.9999 41.034 61.7479 41.208 61.5319 41.448C61.3159 41.676 61.1479 41.97 61.0279 42.33C60.9079 42.69 60.8479 43.116 60.8479 43.608V48H59.2279V39.468ZM73.8019 40.872H71.4799V44.742C71.4799 44.982 71.4859 45.222 71.4979 45.462C71.5099 45.69 71.5519 45.9 71.6239 46.092C71.7079 46.272 71.8279 46.422 71.9839 46.542C72.1519 46.65 72.3919 46.704 72.7039 46.704C72.8959 46.704 73.0939 46.686 73.2979 46.65C73.5019 46.614 73.6879 46.548 73.8559 46.452V47.928C73.6639 48.036 73.4119 48.108 73.0999 48.144C72.7999 48.192 72.5659 48.216 72.3979 48.216C71.7739 48.216 71.2879 48.132 70.9399 47.964C70.6039 47.784 70.3519 47.556 70.1839 47.28C70.0279 47.004 69.9319 46.698 69.8959 46.362C69.8719 46.014 69.8599 45.666 69.8599 45.318V40.872H67.9879V39.468H69.8599V37.074H71.4799V39.468H73.8019V40.872ZM77.116 44.328C77.116 44.7 77.194 45.042 77.35 45.354C77.518 45.654 77.734 45.912 77.998 46.128C78.262 46.344 78.568 46.512 78.916 46.632C79.264 46.752 79.624 46.812 79.996 46.812C80.5 46.812 80.938 46.698 81.31 46.47C81.682 46.23 82.024 45.918 82.336 45.534L83.56 46.47C82.66 47.634 81.4 48.216 79.78 48.216C79.108 48.216 78.496 48.102 77.944 47.874C77.404 47.646 76.942 47.334 76.558 46.938C76.186 46.53 75.898 46.056 75.694 45.516C75.49 44.964 75.388 44.37 75.388 43.734C75.388 43.098 75.496 42.51 75.712 41.97C75.94 41.418 76.246 40.944 76.63 40.548C77.026 40.14 77.494 39.822 78.034 39.594C78.574 39.366 79.162 39.252 79.798 39.252C80.554 39.252 81.19 39.384 81.706 39.648C82.234 39.912 82.666 40.26 83.002 40.692C83.338 41.112 83.578 41.592 83.722 42.132C83.878 42.66 83.956 43.2 83.956 43.752V44.328H77.116ZM82.228 43.032C82.216 42.672 82.156 42.342 82.048 42.042C81.952 41.742 81.802 41.484 81.598 41.268C81.394 41.04 81.136 40.866 80.824 40.746C80.524 40.614 80.17 40.548 79.762 40.548C79.366 40.548 79 40.626 78.664 40.782C78.34 40.926 78.064 41.118 77.836 41.358C77.608 41.598 77.428 41.868 77.296 42.168C77.176 42.456 77.116 42.744 77.116 43.032H82.228ZM85.8939 39.468H87.5139V40.782H87.5499C87.6579 40.554 87.8019 40.35 87.9819 40.17C88.1619 39.978 88.3599 39.816 88.5759 39.684C88.8039 39.552 89.0499 39.45 89.3139 39.378C89.5779 39.294 89.8419 39.252 90.1059 39.252C90.3699 39.252 90.6099 39.288 90.8259 39.36L90.7539 41.106C90.6219 41.07 90.4899 41.04 90.3579 41.016C90.2259 40.992 90.0939 40.98 89.9619 40.98C89.1699 40.98 88.5639 41.202 88.1439 41.646C87.7239 42.09 87.5139 42.78 87.5139 43.716V48H85.8939V39.468ZM101.976 35.256H103.542L108.996 48H106.98L105.702 44.85H99.6358L98.3758 48H96.3598L101.976 35.256ZM105.072 43.338L102.696 37.488H102.66L100.248 43.338H105.072ZM110.24 39.468H111.86V40.692H111.896C112.208 40.236 112.634 39.882 113.174 39.63C113.726 39.378 114.29 39.252 114.866 39.252C115.526 39.252 116.12 39.366 116.648 39.594C117.188 39.822 117.644 40.14 118.016 40.548C118.4 40.956 118.694 41.436 118.898 41.988C119.102 42.528 119.204 43.11 119.204 43.734C119.204 44.37 119.102 44.964 118.898 45.516C118.694 46.056 118.4 46.53 118.016 46.938C117.644 47.334 117.188 47.646 116.648 47.874C116.12 48.102 115.526 48.216 114.866 48.216C114.254 48.216 113.678 48.09 113.138 47.838C112.598 47.574 112.184 47.22 111.896 46.776H111.86V53.076H110.24V39.468ZM114.668 40.764C114.236 40.764 113.846 40.842 113.498 40.998C113.15 41.142 112.856 41.346 112.616 41.61C112.376 41.862 112.19 42.174 112.058 42.546C111.926 42.906 111.86 43.302 111.86 43.734C111.86 44.166 111.926 44.568 112.058 44.94C112.19 45.3 112.376 45.612 112.616 45.876C112.856 46.128 113.15 46.332 113.498 46.488C113.846 46.632 114.236 46.704 114.668 46.704C115.1 46.704 115.49 46.632 115.838 46.488C116.186 46.332 116.48 46.128 116.72 45.876C116.96 45.612 117.146 45.3 117.278 44.94C117.41 44.568 117.476 44.166 117.476 43.734C117.476 43.302 117.41 42.906 117.278 42.546C117.146 42.174 116.96 41.862 116.72 41.61C116.48 41.346 116.186 41.142 115.838 40.998C115.49 40.842 115.1 40.764 114.668 40.764ZM121.244 39.468H122.864V40.692H122.9C123.212 40.236 123.638 39.882 124.178 39.63C124.73 39.378 125.294 39.252 125.87 39.252C126.53 39.252 127.124 39.366 127.652 39.594C128.192 39.822 128.648 40.14 129.02 40.548C129.404 40.956 129.698 41.436 129.902 41.988C130.106 42.528 130.208 43.11 130.208 43.734C130.208 44.37 130.106 44.964 129.902 45.516C129.698 46.056 129.404 46.53 129.02 46.938C128.648 47.334 128.192 47.646 127.652 47.874C127.124 48.102 126.53 48.216 125.87 48.216C125.258 48.216 124.682 48.09 124.142 47.838C123.602 47.574 123.188 47.22 122.9 46.776H122.864V53.076H121.244V39.468ZM125.672 40.764C125.24 40.764 124.85 40.842 124.502 40.998C124.154 41.142 123.86 41.346 123.62 41.61C123.38 41.862 123.194 42.174 123.062 42.546C122.93 42.906 122.864 43.302 122.864 43.734C122.864 44.166 122.93 44.568 123.062 44.94C123.194 45.3 123.38 45.612 123.62 45.876C123.86 46.128 124.154 46.332 124.502 46.488C124.85 46.632 125.24 46.704 125.672 46.704C126.104 46.704 126.494 46.632 126.842 46.488C127.19 46.332 127.484 46.128 127.724 45.876C127.964 45.612 128.15 45.3 128.282 44.94C128.414 44.568 128.48 44.166 128.48 43.734C128.48 43.302 128.414 42.906 128.282 42.546C128.15 42.174 127.964 41.862 127.724 41.61C127.484 41.346 127.19 41.142 126.842 40.998C126.494 40.842 126.104 40.764 125.672 40.764Z" fill="#F5F5FF"/>
<path d="M144.292 37.1629C144.2 37.2554 144.126 37.3653 144.076 37.4863C144.026 37.6073 144 37.7369 144 37.8679C144 37.9989 144.026 38.1286 144.076 38.2495C144.126 38.3705 144.2 38.4804 144.292 38.5729L148.172 42.4529L144.292 46.3329C144.105 46.5199 144 46.7735 144 47.0379C144 47.3023 144.105 47.5559 144.292 47.7429C144.479 47.9299 144.733 48.0349 144.997 48.0349C145.262 48.0349 145.515 47.9299 145.702 47.7429L150.292 43.1529C150.385 43.0604 150.459 42.9505 150.509 42.8295C150.559 42.7086 150.585 42.5789 150.585 42.4479C150.585 42.3169 150.559 42.1873 150.509 42.0663C150.459 41.9453 150.385 41.8354 150.292 41.7429L145.702 37.1529C145.322 36.7729 144.682 36.7729 144.292 37.1629Z" fill="#F5F5FF"/>
<path d="M159.925 37.1473C159.833 37.2398 159.759 37.3497 159.709 37.4707C159.659 37.5916 159.633 37.7213 159.633 37.8523C159.633 37.9832 159.659 38.1129 159.709 38.2339C159.759 38.3549 159.833 38.4648 159.925 38.5573L163.805 42.4373L159.925 46.3173C159.738 46.5043 159.633 46.7579 159.633 47.0223C159.633 47.2867 159.738 47.5403 159.925 47.7273C160.112 47.9143 160.366 48.0193 160.63 48.0193C160.895 48.0193 161.148 47.9143 161.335 47.7273L165.925 43.1373C166.018 43.0448 166.092 42.9349 166.142 42.8139C166.192 42.6929 166.218 42.5632 166.218 42.4323C166.218 42.3013 166.192 42.1716 166.142 42.0507C166.092 41.9297 166.018 41.8198 165.925 41.7273L161.335 37.1373C160.955 36.7573 160.315 36.7573 159.925 37.1473Z" fill="#F5F5FF"/>
<ellipse cx="99.5" cy="43.6436" rx="96.5" ry="30.5" stroke="url(#paint0_linear_4620_2907)"/>
<ellipse rx="96.2412" ry="31.2351" transform="matrix(0.991391 -0.130932 0.129861 0.991532 99.4689 43.5717)" stroke="url(#paint1_linear_4620_2907)"/>
<defs>
<linearGradient id="paint0_linear_4620_2907" x1="99.5" y1="13.1436" x2="99.5" y2="74.1436" gradientUnits="userSpaceOnUse">
<stop stop-color="white" stop-opacity="0.3"/>
<stop offset="1" stop-color="white"/>
</linearGradient>
<linearGradient id="paint1_linear_4620_2907" x1="96.2412" y1="0" x2="96.2412" y2="62.4702" gradientUnits="userSpaceOnUse">
<stop stop-color="white"/>
<stop offset="1" stop-color="white" stop-opacity="0.3"/>
</linearGradient>
</defs>
</svg>
